/* XPM */
static char *_6fb1fa0d4e14d91b06dbb351f400c89[] = {
/* columns rows colors chars-per-pixel */
"64 64 28 1 ",
"  c black",
". c gray10",
"X c #231A04",
"o c #35280C",
"O c #3E2C11",
"+ c #282828",
"@ c #353535",
"# c #463511",
"$ c #533915",
"% c #5C3E1A",
"& c #6C461F",
"* c #754B23",
"= c #464646",
"- c #535353",
"; c #646464",
": c gray44",
"> c gray49",
", c #814F28",
"< c #89572C",
"1 c #915C31",
"2 c #9D6035",
"3 c #A16439",
"4 c #A9683E",
"5 c #B57042",
"6 c #BD7946",
"7 c #000000",
"8 c #8D8D8D",
"9 c gray60",
/* pixels */
"7777777777777777777777777777777777777777777777777777777777777777",
"7777777777777777777777777777777777777777777777777777777777777777",
"7777777777777777777777777777777777777777777777777777777777777777",
"7777777777777777777777777777777777777777777777777777777777777777",
"7777777777777777777777777777777777777777777777777777777777777777",
"7777777777777777777777777777777777777777777777777777777777777777",
"7777777777777777777777777777777777777777777777777777777777777777",
"7777777777777777777777777777777777777777777777777777777777777777",
"7777777777777777777777777777777777777777777777777777777777777777",
"7777777777777777777777777777777777777777777777777777777777777777",
"7777777777777777777777777777777777777777777777777777777777777777",
"7777777777777777777777777777777777777777777777777777777777777777",
"7777777777777777777777777777777777777777777777777777777777777777",
"7777777777777777777777777777777777777777777777777777777777777777",
"7777777777777777777777777777777777777777777777777777777777777777",
"7777777777777777777777777777777777777777777777777777777777777777",
"7777777777777777777777777777777777777777777777777777777777777777",
"7777777777777777777777777777777777777777777777777777777777777777",
"7777777777777777777777777777777777777777777777777777777777777777",
"7777777777777777777777777777777777777777777777777777777777777777",
"7777777777777777777777777777777777777777777777777777777777777777",
"7777777777777777777777777777777777777777777777777777777777777777",
"7777777777777777777777777777777777777777777777777777777777777777",
"7777777777777777777777777777777777777777777777777777777777777777",
"7777777777777777777777777777777777777777777777777777777777777777",
"7777777777777777777777777777777777777777777777777777777777777777",
"7777777777777777777777777777777777777777777777777777777777777777",
"7777777777777777777777777777777777777777777777777777777777777777",
"7777777777777777777777777777777777777777777777777777777777777777",
"7777777777777777777777777777777777777777777777777777777777777777",
"7777777777777777777777777777777777777777777777777777777777777777",
"77777777777777777777777:::::::::>>>>>>88887777777777777777777777",
"777777777777777777777>:-----------;;;;;:::8>77777777777777777777",
"77777777777777777777>8-@....+++++++@@====-:-:7777777777777777777",
"77777777777777777777>>89988>>>>>::::;;;;--=@@7777777777777777777",
"777777777777777777722>>88>>:::;;;;---===@@@@##777777777777777777",
"7777777777777777777<3122<,,,****&&&%%%######%#777777777777777777",
"7777777777777777772<335626553144321*&,**$*&##%#77777777777777777",
"777777777777777777<3<56346551<44321*&,,*&%*&#%#77777777777777777",
"777777777777777777<3<56265551144321,%,,,*$*&#%=77777777777777777",
"77777777777777777-;>8:626554144321<,%,,,*$====@77777777777777777",
"77777777777777777-:>>8898>>>>:::::;;;;;----@@@@#7777777777777777",
"77777777777777777->>>>>8::::;;;;------====@@@@@#7777777777777777",
"77777777777777777<*-;:>>::::;;;;------=====@@@%#7777777777777777",
"77777777777777777<3<533%21<,#***&&&&X%####$%%#%#7777777777777777",
"77777777777777777<3<56636555143221<,%,,,*&$%%#%#7777777777777777",
"77777777777777777<3<56636555143221<,%,,,*&$%%#%#7777777777777777",
"77777777777777777<3<56636555<43221<,%,,,*&$%%#%#7777777777777777",
"77777777777777777<3<56636555<43221<,%,,,*&$%%#%#7777777777777777",
"77777777777777777<3<56636555<43221<,%,,,*&$%%#%#7777777777777777",
"77777777777777777<3<56636555<43221<,%,,,*&$%%#%#7777777777777777",
"77777777777777777>3<56626555,43221<,%,,,*&$%%#==7777777777777777",
"77777777777777777:888>626555,43221<,%,,,*&$====@7777777777777777",
"77777777777777777;>>>898>>>>>:::::;;;;;----=@@@@7777777777777777",
"77777777777777777-;:>>8>::::;;;;------=====@@@@O7777777777777777",
"777777777777777777*-;;;:::::;;;;------=====OOO$%7777777777777777",
"777777777777777777<<,,,,,,&&o&&%%%%%X%%%%OO%#%#%7777777777777777",
"777777777777777777<3<4626442*21111<,%,,*&#%%#%#77777777777777777",
"7777777777777777777<335<4442*<1111<&%,,*&#%%#%#77777777777777777",
"7777777777777777777:3<33<442*,111<,%%,,*%#%#%#;77777777777777777",
"7777777777777777777:8983<222,*<<<<,%&,*&#%###@@77777777777777777",
"77777777777777777777>>>8888>>>::;;;---===@@+..777777777777777777",
"777777777777777777777>:>>:::;;;;----===@@@+++7777777777777777777",
"77777777777777777777777-----=====@@@@+++++@777777777777777777777"
};
